<?xml version="1.0" encoding="UTF-8" standalone="no"?>
<!-- Created with Inkscape (http://www.inkscape.org/) -->

<svg
   xmlns:dc="http://purl.org/dc/elements/1.1/"
   xmlns:cc="http://creativecommons.org/ns#"
   xmlns:rdf="http://www.w3.org/1999/02/22-rdf-syntax-ns#"
   xmlns:svg="http://www.w3.org/2000/svg"
   xmlns="http://www.w3.org/2000/svg"
   xmlns:xlink="http://www.w3.org/1999/xlink"
   xmlns:sodipodi="http://sodipodi.sourceforge.net/DTD/sodipodi-0.dtd"
   xmlns:inkscape="http://www.inkscape.org/namespaces/inkscape"
   width="66.344193"
   height="116.1884"
   id="svg2"
   version="1.1"
   inkscape:version="0.48.5 r10040"
   sodipodi:docname="spaceship5.svg">
  <defs
     id="defs4">
    <linearGradient
       id="linearGradient3857">
      <stop
         style="stop-color:#eff5fa;stop-opacity:1;"
         offset="0"
         id="stop3859" />
      <stop
         style="stop-color:#34bfed;stop-opacity:1;"
         offset="1"
         id="stop3861" />
    </linearGradient>
    <radialGradient
       inkscape:collect="always"
       xlink:href="#linearGradient3857-6"
       id="radialGradient3965-1"
       cx="34.702141"
       cy="48.212013"
       fx="34.702141"
       fy="48.212013"
       r="21.995193"
       gradientUnits="userSpaceOnUse" />
    <linearGradient
       id="linearGradient3857-6">
      <stop
         style="stop-color:#eff5fa;stop-opacity:1;"
         offset="0"
         id="stop3859-8" />
      <stop
         style="stop-color:#34bfed;stop-opacity:1;"
         offset="1"
         id="stop3861-8" />
    </linearGradient>
    <radialGradient
       inkscape:collect="always"
       xlink:href="#linearGradient3857"
       id="radialGradient4154"
       gradientUnits="userSpaceOnUse"
       cx="34.702141"
       cy="48.212013"
       fx="34.702141"
       fy="48.212013"
       r="21.995193" />
    <radialGradient
       inkscape:collect="always"
       xlink:href="#linearGradient3857-6"
       id="radialGradient4156"
       gradientUnits="userSpaceOnUse"
       cx="34.702141"
       cy="48.212013"
       fx="34.702141"
       fy="48.212013"
       r="21.995193" />
  </defs>
  <sodipodi:namedview
     id="base"
     pagecolor="#ffffff"
     bordercolor="#666666"
     borderopacity="1.0"
     inkscape:pageopacity="0.0"
     inkscape:pageshadow="2"
     inkscape:zoom="4.9084996"
     inkscape:cx="13.948259"
     inkscape:cy="43.319948"
     inkscape:document-units="px"
     inkscape:current-layer="layer1"
     showgrid="false"
     showguides="true"
     inkscape:guide-bbox="true"
     inkscape:window-width="1707"
     inkscape:window-height="901"
     inkscape:window-x="-8"
     inkscape:window-y="-8"
     inkscape:window-maximized="1"
     fit-margin-top="0"
     fit-margin-left="0"
     fit-margin-right="0"
     fit-margin-bottom="0" />
  <metadata
     id="metadata7">
    <rdf:RDF>
      <cc:Work
         rdf:about="">
        <dc:format>image/svg+xml</dc:format>
        <dc:type
           rdf:resource="http://purl.org/dc/dcmitype/StillImage" />
        <dc:title />
      </cc:Work>
    </rdf:RDF>
  </metadata>
  <g
     inkscape:label="Calque 1"
     inkscape:groupmode="layer"
     id="layer1"
     transform="translate(-2.3583606,-4.6237153)">
    <path
       sodipodi:type="arc"
       style="color:#000000;fill:#008a6e;fill-opacity:1;fill-rule:nonzero;stroke:#000000;stroke-width:0.80000001;stroke-miterlimit:4;stroke-opacity:1;stroke-dasharray:none;marker:none;visibility:visible;display:inline;overflow:visible;enable-background:accumulate"
       id="path3171-7-4"
       sodipodi:cx="38.504639"
       sodipodi:cy="56.496025"
       sodipodi:rx="21.595194"
       sodipodi:ry="21.595194"
       d="m 60.099833,56.496025 a 21.595194,21.595194 0 1 1 -43.190388,0 21.595194,21.595194 0 1 1 43.190388,0 z"
       transform="matrix(1.5001695,0,0,1.5001695,-21.993692,0.0215458)" />
    <path
       sodipodi:type="arc"
       style="color:#000000;fill:#00dbaf;fill-opacity:1;fill-rule:nonzero;stroke:#000000;stroke-width:0.80000001;stroke-miterlimit:4;stroke-opacity:1;stroke-dasharray:none;marker:none;visibility:visible;display:inline;overflow:visible;enable-background:accumulate"
       id="path3171-7"
       sodipodi:cx="38.504639"
       sodipodi:cy="56.496025"
       sodipodi:rx="21.595194"
       sodipodi:ry="21.595194"
       d="m 60.099833,56.496025 a 21.595194,21.595194 0 1 1 -43.190388,0 21.595194,21.595194 0 1 1 43.190388,0 z"
       transform="matrix(1.5001695,0,0,1.5001695,-21.993692,-20.850617)" />
    <g
       id="g4256"
       transform="translate(0.32091781,-0.76031442)">
      <path
         transform="matrix(0,0.16487559,-0.14588613,0,43.547072,108.0236)"
         d="m 60.099833,56.496025 c 0,11.926696 -9.668498,21.595194 -21.595194,21.595194 -11.926697,0 -21.595194,-9.668498 -21.595194,-21.595194 0,-11.926696 9.668497,-21.595194 21.595194,-21.595194 11.926696,0 21.595194,9.668498 21.595194,21.595194 z"
         sodipodi:ry="21.595194"
         sodipodi:rx="21.595194"
         sodipodi:cy="56.496025"
         sodipodi:cx="38.504639"
         id="path3171-7-7-1-6-0-6"
         style="color:#000000;fill:#687875;fill-opacity:1;fill-rule:nonzero;stroke:#000000;stroke-width:1.99935555;stroke-miterlimit:4;stroke-opacity:1;stroke-dasharray:none;marker:none;visibility:visible;display:inline;overflow:visible;enable-background:accumulate"
         sodipodi:type="arc" />
      <path
         transform="matrix(0,0.16487559,-0.14588613,0,43.547072,106.40714)"
         d="m 60.099833,56.496025 c 0,11.926696 -9.668498,21.595194 -21.595194,21.595194 -11.926697,0 -21.595194,-9.668498 -21.595194,-21.595194 0,-11.926696 9.668497,-21.595194 21.595194,-21.595194 11.926696,0 21.595194,9.668498 21.595194,21.595194 z"
         sodipodi:ry="21.595194"
         sodipodi:rx="21.595194"
         sodipodi:cy="56.496025"
         sodipodi:cx="38.504639"
         id="path3171-7-7-1-2-9-3"
         style="color:#000000;fill:#687875;fill-opacity:1;fill-rule:nonzero;stroke:#000000;stroke-width:1.99935555;stroke-miterlimit:4;stroke-opacity:1;stroke-dasharray:none;marker:none;visibility:visible;display:inline;overflow:visible;enable-background:accumulate"
         sodipodi:type="arc" />
      <path
         transform="matrix(0,0.16487559,-0.14588613,0,43.547072,104.79069)"
         d="m 60.099833,56.496025 c 0,11.926696 -9.668498,21.595194 -21.595194,21.595194 -11.926697,0 -21.595194,-9.668498 -21.595194,-21.595194 0,-11.926696 9.668497,-21.595194 21.595194,-21.595194 11.926696,0 21.595194,9.668498 21.595194,21.595194 z"
         sodipodi:ry="21.595194"
         sodipodi:rx="21.595194"
         sodipodi:cy="56.496025"
         sodipodi:cx="38.504639"
         id="path3171-7-7-1-4-0"
         style="color:#000000;fill:#687875;fill-opacity:1;fill-rule:nonzero;stroke:#000000;stroke-width:1.99935555;stroke-miterlimit:4;stroke-opacity:1;stroke-dasharray:none;marker:none;visibility:visible;display:inline;overflow:visible;enable-background:accumulate"
         sodipodi:type="arc" />
      <path
         transform="matrix(0,0.16487559,-0.14588613,0,43.457842,103.17423)"
         d="m 60.099833,56.496025 c 0,11.926696 -9.668498,21.595194 -21.595194,21.595194 -11.926697,0 -21.595194,-9.668498 -21.595194,-21.595194 0,-11.926696 9.668497,-21.595194 21.595194,-21.595194 11.926696,0 21.595194,9.668498 21.595194,21.595194 z"
         sodipodi:ry="21.595194"
         sodipodi:rx="21.595194"
         sodipodi:cy="56.496025"
         sodipodi:cx="38.504639"
         id="path3171-7-7-1-6-0-6-6"
         style="color:#000000;fill:#687875;fill-opacity:1;fill-rule:nonzero;stroke:#000000;stroke-width:1.99935555;stroke-miterlimit:4;stroke-opacity:1;stroke-dasharray:none;marker:none;visibility:visible;display:inline;overflow:visible;enable-background:accumulate"
         sodipodi:type="arc" />
      <path
         transform="matrix(0,0.16487559,-0.14588613,0,43.457852,101.55777)"
         d="m 60.099833,56.496025 c 0,11.926696 -9.668498,21.595194 -21.595194,21.595194 -11.926697,0 -21.595194,-9.668498 -21.595194,-21.595194 0,-11.926696 9.668497,-21.595194 21.595194,-21.595194 11.926696,0 21.595194,9.668498 21.595194,21.595194 z"
         sodipodi:ry="21.595194"
         sodipodi:rx="21.595194"
         sodipodi:cy="56.496025"
         sodipodi:cx="38.504639"
         id="path3171-7-7-1-2-9-3-2"
         style="color:#000000;fill:#687875;fill-opacity:1;fill-rule:nonzero;stroke:#000000;stroke-width:1.99935555;stroke-miterlimit:4;stroke-opacity:1;stroke-dasharray:none;marker:none;visibility:visible;display:inline;overflow:visible;enable-background:accumulate"
         sodipodi:type="arc" />
      <path
         transform="matrix(0,0.16487559,-0.14588613,0,43.457852,99.941318)"
         d="m 60.099833,56.496025 c 0,11.926696 -9.668498,21.595194 -21.595194,21.595194 -11.926697,0 -21.595194,-9.668498 -21.595194,-21.595194 0,-11.926696 9.668497,-21.595194 21.595194,-21.595194 11.926696,0 21.595194,9.668498 21.595194,21.595194 z"
         sodipodi:ry="21.595194"
         sodipodi:rx="21.595194"
         sodipodi:cy="56.496025"
         sodipodi:cx="38.504639"
         id="path3171-7-7-1-4-0-4"
         style="color:#000000;fill:#687875;fill-opacity:1;fill-rule:nonzero;stroke:#000000;stroke-width:1.99935555;stroke-miterlimit:4;stroke-opacity:1;stroke-dasharray:none;marker:none;visibility:visible;display:inline;overflow:visible;enable-background:accumulate"
         sodipodi:type="arc" />
      <path
         transform="matrix(0,0.16487559,-0.14588613,0,43.445209,98.324862)"
         d="m 60.099833,56.496025 c 0,11.926696 -9.668498,21.595194 -21.595194,21.595194 -11.926697,0 -21.595194,-9.668498 -21.595194,-21.595194 0,-11.926696 9.668497,-21.595194 21.595194,-21.595194 11.926696,0 21.595194,9.668498 21.595194,21.595194 z"
         sodipodi:ry="21.595194"
         sodipodi:rx="21.595194"
         sodipodi:cy="56.496025"
         sodipodi:cx="38.504639"
         id="path3171-7-7-1-6-0-6-5"
         style="color:#000000;fill:#687875;fill-opacity:1;fill-rule:nonzero;stroke:#000000;stroke-width:1.99935555;stroke-miterlimit:4;stroke-opacity:1;stroke-dasharray:none;marker:none;visibility:visible;display:inline;overflow:visible;enable-background:accumulate"
         sodipodi:type="arc" />
      <path
         transform="matrix(0,0.16487559,-0.14588613,0,43.445209,96.708404)"
         d="m 60.099833,56.496025 c 0,11.926696 -9.668498,21.595194 -21.595194,21.595194 -11.926697,0 -21.595194,-9.668498 -21.595194,-21.595194 0,-11.926696 9.668497,-21.595194 21.595194,-21.595194 11.926696,0 21.595194,9.668498 21.595194,21.595194 z"
         sodipodi:ry="21.595194"
         sodipodi:rx="21.595194"
         sodipodi:cy="56.496025"
         sodipodi:cx="38.504639"
         id="path3171-7-7-1-2-9-3-8"
         style="color:#000000;fill:#687875;fill-opacity:1;fill-rule:nonzero;stroke:#000000;stroke-width:1.99935555;stroke-miterlimit:4;stroke-opacity:1;stroke-dasharray:none;marker:none;visibility:visible;display:inline;overflow:visible;enable-background:accumulate"
         sodipodi:type="arc" />
      <path
         transform="matrix(0,0.16487559,-0.14588613,0,43.445209,95.091948)"
         d="m 60.099833,56.496025 c 0,11.926696 -9.668498,21.595194 -21.595194,21.595194 -11.926697,0 -21.595194,-9.668498 -21.595194,-21.595194 0,-11.926696 9.668497,-21.595194 21.595194,-21.595194 11.926696,0 21.595194,9.668498 21.595194,21.595194 z"
         sodipodi:ry="21.595194"
         sodipodi:rx="21.595194"
         sodipodi:cy="56.496025"
         sodipodi:cx="38.504639"
         id="path3171-7-7-1-4-0-8"
         style="color:#000000;fill:#687875;fill-opacity:1;fill-rule:nonzero;stroke:#000000;stroke-width:1.99935555;stroke-miterlimit:4;stroke-opacity:1;stroke-dasharray:none;marker:none;visibility:visible;display:inline;overflow:visible;enable-background:accumulate"
         sodipodi:type="arc" />
      <path
         transform="matrix(0,0.16487559,-0.14588613,0,43.355979,93.475492)"
         d="m 60.099833,56.496025 c 0,11.926696 -9.668498,21.595194 -21.595194,21.595194 -11.926697,0 -21.595194,-9.668498 -21.595194,-21.595194 0,-11.926696 9.668497,-21.595194 21.595194,-21.595194 11.926696,0 21.595194,9.668498 21.595194,21.595194 z"
         sodipodi:ry="21.595194"
         sodipodi:rx="21.595194"
         sodipodi:cy="56.496025"
         sodipodi:cx="38.504639"
         id="path3171-7-7-1-6-0-6-6-1"
         style="color:#000000;fill:#687875;fill-opacity:1;fill-rule:nonzero;stroke:#000000;stroke-width:1.99935555;stroke-miterlimit:4;stroke-opacity:1;stroke-dasharray:none;marker:none;visibility:visible;display:inline;overflow:visible;enable-background:accumulate"
         sodipodi:type="arc" />
      <path
         transform="matrix(0,0.16487559,-0.14588613,0,43.355989,91.859034)"
         d="m 60.099833,56.496025 c 0,11.926696 -9.668498,21.595194 -21.595194,21.595194 -11.926697,0 -21.595194,-9.668498 -21.595194,-21.595194 0,-11.926696 9.668497,-21.595194 21.595194,-21.595194 11.926696,0 21.595194,9.668498 21.595194,21.595194 z"
         sodipodi:ry="21.595194"
         sodipodi:rx="21.595194"
         sodipodi:cy="56.496025"
         sodipodi:cx="38.504639"
         id="path3171-7-7-1-2-9-3-2-2"
         style="color:#000000;fill:#687875;fill-opacity:1;fill-rule:nonzero;stroke:#000000;stroke-width:1.99935555;stroke-miterlimit:4;stroke-opacity:1;stroke-dasharray:none;marker:none;visibility:visible;display:inline;overflow:visible;enable-background:accumulate"
         sodipodi:type="arc" />
      <path
         transform="matrix(0,0.16487559,-0.14588613,0,43.355989,90.242579)"
         d="m 60.099833,56.496025 c 0,11.926696 -9.668498,21.595194 -21.595194,21.595194 -11.926697,0 -21.595194,-9.668498 -21.595194,-21.595194 0,-11.926696 9.668497,-21.595194 21.595194,-21.595194 11.926696,0 21.595194,9.668498 21.595194,21.595194 z"
         sodipodi:ry="21.595194"
         sodipodi:rx="21.595194"
         sodipodi:cy="56.496025"
         sodipodi:cx="38.504639"
         id="path3171-7-7-1-4-0-4-1"
         style="color:#000000;fill:#687875;fill-opacity:1;fill-rule:nonzero;stroke:#000000;stroke-width:1.99935555;stroke-miterlimit:4;stroke-opacity:1;stroke-dasharray:none;marker:none;visibility:visible;display:inline;overflow:visible;enable-background:accumulate"
         sodipodi:type="arc" />
    </g>
    <path
       sodipodi:type="arc"
       style="color:#000000;fill:#b20830;fill-opacity:1;fill-rule:nonzero;stroke:#000000;stroke-width:0.80000001;stroke-miterlimit:4;stroke-opacity:1;stroke-dasharray:none;marker:none;visibility:visible;display:inline;overflow:visible;enable-background:accumulate"
       id="path3171-7-7"
       sodipodi:cx="38.504639"
       sodipodi:cy="56.496025"
       sodipodi:rx="21.595194"
       sodipodi:ry="21.595194"
       d="m 60.099833,56.496025 a 21.595194,21.595194 0 1 1 -43.190388,0 21.595194,21.595194 0 1 1 43.190388,0 z"
       transform="matrix(0.33310733,0,0,0.33310733,22.704279,70.105047)" />
    <path
       sodipodi:type="arc"
       style="color:#000000;fill:#01ffcc;fill-opacity:1;fill-rule:nonzero;stroke:#000000;stroke-width:0.80000001;stroke-miterlimit:4;stroke-opacity:1;stroke-dasharray:none;marker:none;visibility:visible;display:inline;overflow:visible;enable-background:accumulate"
       id="path3171"
       sodipodi:cx="38.504639"
       sodipodi:cy="56.496025"
       sodipodi:rx="21.595194"
       sodipodi:ry="21.595194"
       d="m 60.099833,56.496025 a 21.595194,21.595194 0 1 1 -43.190388,0 21.595194,21.595194 0 1 1 43.190388,0 z"
       transform="matrix(1.5001695,0,0,1.5001695,-22.233028,-27.258074)" />
    <g
       id="g4001"
       transform="translate(-32.596519,-7.032981)">
      <g
         id="g4009"
         transform="translate(32.255319,0)">
        <path
           sodipodi:type="arc"
           style="color:#000000;fill:url(#radialGradient4154);fill-opacity:1;fill-rule:nonzero;stroke:#000000;stroke-width:0.80000001;stroke-miterlimit:4;stroke-opacity:1;stroke-dasharray:none;marker:none;visibility:visible;display:inline;overflow:visible;enable-background:accumulate"
           id="path3171-1"
           sodipodi:cx="38.504639"
           sodipodi:cy="56.496025"
           sodipodi:rx="21.595194"
           sodipodi:ry="21.595194"
           d="m 60.099833,56.496025 c 0,11.926696 -9.668498,21.595194 -21.595194,21.595194 -11.926697,0 -21.595194,-9.668498 -21.595194,-21.595194 0,-11.926696 9.668497,-21.595194 21.595194,-21.595194 11.926696,0 21.595194,9.668498 21.595194,21.595194 z"
           transform="matrix(0.66655368,0,0,0.66655368,-4.7677778,2.4780988)" />
        <path
           sodipodi:type="arc"
           style="color:#000000;fill:url(#radialGradient4156);fill-opacity:1;fill-rule:nonzero;stroke:#000000;stroke-width:0.80000001;stroke-miterlimit:4;stroke-opacity:1;stroke-dasharray:none;marker:none;visibility:visible;display:inline;overflow:visible;enable-background:accumulate"
           id="path3171-1-2"
           sodipodi:cx="38.504639"
           sodipodi:cy="56.496025"
           sodipodi:rx="21.595194"
           sodipodi:ry="21.595194"
           d="m 60.099833,56.496025 c 0,11.926696 -9.668498,21.595194 -21.595194,21.595194 -11.926697,0 -21.595194,-9.668498 -21.595194,-21.595194 0,-11.926696 9.668497,-21.595194 21.595194,-21.595194 11.926696,0 21.595194,9.668498 21.595194,21.595194 z"
           transform="matrix(0.66655368,0,0,0.66655368,25.180274,2.4780988)" />
      </g>
    </g>
    <g
       id="g4680"
       transform="translate(0,9.018641)">
      <path
         transform="matrix(0.33310733,0,0,0.33310733,7.8677251,85.662964)"
         d="m 60.099833,56.496025 c 0,11.926696 -9.668498,21.595194 -21.595194,21.595194 -11.926697,0 -21.595194,-9.668498 -21.595194,-21.595194 0,-11.926696 9.668497,-21.595194 21.595194,-21.595194 11.926696,0 21.595194,9.668498 21.595194,21.595194 z"
         sodipodi:ry="21.595194"
         sodipodi:rx="21.595194"
         sodipodi:cy="56.496025"
         sodipodi:cx="38.504639"
         id="path3171-7-7-1-6"
         style="color:#000000;fill:#009c7c;fill-opacity:1;fill-rule:nonzero;stroke:#000000;stroke-width:0.80000001;stroke-miterlimit:4;stroke-opacity:1;stroke-dasharray:none;marker:none;visibility:visible;display:inline;overflow:visible;enable-background:accumulate"
         sodipodi:type="arc" />
      <path
         transform="matrix(0.33310733,0,0,0.33310733,-2.9298716,85.66296)"
         d="m 60.099833,56.496025 c 0,11.926696 -9.668498,21.595194 -21.595194,21.595194 -11.926697,0 -21.595194,-9.668498 -21.595194,-21.595194 0,-11.926696 9.668497,-21.595194 21.595194,-21.595194 11.926696,0 21.595194,9.668498 21.595194,21.595194 z"
         sodipodi:ry="21.595194"
         sodipodi:rx="21.595194"
         sodipodi:cy="56.496025"
         sodipodi:cx="38.504639"
         id="path3171-7-7-1"
         style="color:#000000;fill:#009c7c;fill-opacity:1;fill-rule:nonzero;stroke:#000000;stroke-width:0.80000001;stroke-miterlimit:4;stroke-opacity:1;stroke-dasharray:none;marker:none;visibility:visible;display:inline;overflow:visible;enable-background:accumulate"
         sodipodi:type="arc" />
      <path
         transform="matrix(0.33310733,0,0,0.33310733,2.3670624,85.662955)"
         d="m 60.099833,56.496025 c 0,11.926696 -9.668498,21.595194 -21.595194,21.595194 -11.926697,0 -21.595194,-9.668498 -21.595194,-21.595194 0,-11.926696 9.668497,-21.595194 21.595194,-21.595194 11.926696,0 21.595194,9.668498 21.595194,21.595194 z"
         sodipodi:ry="21.595194"
         sodipodi:rx="21.595194"
         sodipodi:cy="56.496025"
         sodipodi:cx="38.504639"
         id="path3171-7-7-1-2"
         style="color:#000000;fill:#009c7c;fill-opacity:1;fill-rule:nonzero;stroke:#000000;stroke-width:0.80000001;stroke-miterlimit:4;stroke-opacity:1;stroke-dasharray:none;marker:none;visibility:visible;display:inline;overflow:visible;enable-background:accumulate"
         sodipodi:type="arc" />
    </g>
    <g
       id="g4685"
       transform="translate(0,9.018641)">
      <path
         transform="matrix(0.33310733,0,0,0.33310733,48.307781,85.866697)"
         d="m 60.099833,56.496025 c 0,11.926696 -9.668498,21.595194 -21.595194,21.595194 -11.926697,0 -21.595194,-9.668498 -21.595194,-21.595194 0,-11.926696 9.668497,-21.595194 21.595194,-21.595194 11.926696,0 21.595194,9.668498 21.595194,21.595194 z"
         sodipodi:ry="21.595194"
         sodipodi:rx="21.595194"
         sodipodi:cy="56.496025"
         sodipodi:cx="38.504639"
         id="path3171-7-7-1-6-0"
         style="color:#000000;fill:#009c7c;fill-opacity:1;fill-rule:nonzero;stroke:#000000;stroke-width:0.80000001;stroke-miterlimit:4;stroke-opacity:1;stroke-dasharray:none;marker:none;visibility:visible;display:inline;overflow:visible;enable-background:accumulate"
         sodipodi:type="arc" />
      <path
         transform="matrix(0.33310733,0,0,0.33310733,37.510184,85.866687)"
         d="m 60.099833,56.496025 c 0,11.926696 -9.668498,21.595194 -21.595194,21.595194 -11.926697,0 -21.595194,-9.668498 -21.595194,-21.595194 0,-11.926696 9.668497,-21.595194 21.595194,-21.595194 11.926696,0 21.595194,9.668498 21.595194,21.595194 z"
         sodipodi:ry="21.595194"
         sodipodi:rx="21.595194"
         sodipodi:cy="56.496025"
         sodipodi:cx="38.504639"
         id="path3171-7-7-1-4"
         style="color:#000000;fill:#009c7c;fill-opacity:1;fill-rule:nonzero;stroke:#000000;stroke-width:0.80000001;stroke-miterlimit:4;stroke-opacity:1;stroke-dasharray:none;marker:none;visibility:visible;display:inline;overflow:visible;enable-background:accumulate"
         sodipodi:type="arc" />
      <path
         transform="matrix(0.33310733,0,0,0.33310733,42.807118,85.866687)"
         d="m 60.099833,56.496025 c 0,11.926696 -9.668498,21.595194 -21.595194,21.595194 -11.926697,0 -21.595194,-9.668498 -21.595194,-21.595194 0,-11.926696 9.668497,-21.595194 21.595194,-21.595194 11.926696,0 21.595194,9.668498 21.595194,21.595194 z"
         sodipodi:ry="21.595194"
         sodipodi:rx="21.595194"
         sodipodi:cy="56.496025"
         sodipodi:cx="38.504639"
         id="path3171-7-7-1-2-9"
         style="color:#000000;fill:#009c7c;fill-opacity:1;fill-rule:nonzero;stroke:#000000;stroke-width:0.80000001;stroke-miterlimit:4;stroke-opacity:1;stroke-dasharray:none;marker:none;visibility:visible;display:inline;overflow:visible;enable-background:accumulate"
         sodipodi:type="arc" />
    </g>
  </g>
</svg>
